<?xml version="1.0" encoding="utf-8"?>
<!-- Generator: Adobe Illustrator 25.0.1, SVG Export Plug-In . SVG Version: 6.00 Build 0)  -->
<svg version="1.1" id="Layer_1" xmlns="http://www.w3.org/2000/svg" xmlns:xlink="http://www.w3.org/1999/xlink" x="0px" y="0px"
	 viewBox="0 0 595.3 300" style="enable-background:new 0 0 595.3 300;" xml:space="preserve">
<style type="text/css">
	.st0{fill:#010101;}
	.st1{fill:none;}
	.st2{enable-background:new    ;}
</style>
<g>
	<g transform="translate(0.000000,512.000000) scale(0.100000,-0.100000)">
		<path class="st0" d="M5133.1,4312.7c-216-34.2-388.4-186.7-442.7-392.2c-12.6-47.3-16.9-85.6-16.9-151.7v-58.1h38.1h38.1v44.5
			c0,78.2,7.9,128.8,28.7,185.9c23.7,64.7,61.7,122.2,113.7,171.6c45.4,43,86.9,70,144.1,94.4c91.3,39,205.8,45.9,305.8,18.9
			c156-42.1,282.8-167,324.5-319.8c11.3-41.1,14.1-63.6,15.8-129.7l1.7-65.7h38.3h38.3l-0.6,49.5c-0.6,68.9-2.8,94.9-11,133.4
			c-47.1,220.8-228.7,387.9-456.9,420.3C5253.3,4319.6,5171.8,4319,5133.1,4312.7z"/>
		<path class="st0" d="M5175.5,4221c-29.9-3.6-73.9-12.9-99.3-21.2c-96.7-31.5-181.9-98.7-232.6-184l-10.4-17.2l8.5,5.3
			c101,62.8,193.7,99.9,293,116.9c43.9,7.7,138.5,7.2,181.7-1c103.5-19.6,199.3-68.9,277.5-142.2c13.5-12.9,24.5-22.8,24.5-22
			s-4.3,11.2-9.6,22.8c-54.7,121.9-171.5,210.8-311,236.3C5268,4220.1,5198.3,4223.6,5175.5,4221z"/>
		<path class="st0" d="M4674.3,3673.4c-47.4-7.7-88.3-34.7-107.4-71.3l-7.6-14.6v-92.8v-92.8l9.1-17.2
			c21.1-40.6,75.4-71.6,124.7-71.6h14.4l0.2,18c0,9.8,0.2,91.3,0.2,180.9l0.2,163l-9.6,0.5
			C4693.2,3675.5,4682.5,3674.7,4674.3,3673.4z"/>
		<path class="st0" d="M5725.4,3495v-181.9h13.5c34.7,0.3,77.6,17.2,103,41.4c17.8,16.7,28.5,35.8,32.8,57.8
			c3.7,19.4,3.9,140.3,0.2,161.5c-9.3,54.3-61.2,95.1-128.9,101.3l-20.6,2.1L5725.4,3495L5725.4,3495z"/>
		<path class="st0" d="M4738.4,3493.1v-180.2l8.7,4.8c14.4,7.9,38.9,34.2,46.3,49.3c11.9,24.1,13.3,38.7,12.2,136.5
			c-0.9,88.6-1.1,92.5-7.4,107.1c-3.7,8.5-10.7,21-15.8,27.9c-9.1,12.4-35.8,35.3-41.1,35.3
			C4739.5,3673.7,4738.4,3607.1,4738.4,3493.1z"/>
		<path class="st0" d="M5676,3663.6c-17.2-11.9-36.3-38.5-42.3-57.6c-3.7-11.2-4.5-32.1-5.4-99.7c-0.2-47.3,0.2-94.1,1.7-104.2
			c3.9-31.8,23.1-62.3,51.3-81.7c5.9-4,12.2-7.4,13.5-7.4c1.1,0,2.2,81.2,2.2,180.2c0,142.4-0.9,180.2-3.4,180.2
			C5691.9,3673.7,5684,3669.2,5676,3663.6z"/>
		<path class="st0" d="M4502.1,3555.4c-6.3-4-6.3-5-6.3-60.7c0-48,0.6-57.3,4.5-60.7c5.4-5.3,15.2-5.3,22.6-0.5
			c5,3.4,5.4,7.4,5.4,60c0,55.7,0,56.2-6.8,61.2C4513.6,3560.7,4510.2,3560.9,4502.1,3555.4z"/>
		<path class="st0" d="M5911.2,3554.7c-6.8-5-6.8-5.5-6.8-61.2c0-52.5,0.2-56.4,5.4-60c7.4-4.8,17.2-4.8,22.6,0.5
			c3.9,3.4,4.5,12.7,4.5,60.7c0,55.7,0,56.7-6.3,60.7C5922.5,3560.9,5919.2,3560.7,5911.2,3554.7z"/>
		<path class="st0" d="M5684.3,3274.1c-1.7-1-8.2-11.4-15-22.5c-33.5-58.1-83.2-108.5-142.1-145c-47.4-29.2-114.8-55.2-168.4-65
			c-36.3-6.7-36.9-6.9-35.2-9.8c1.1-1.4,1.7-9.8,1.7-18.6V2997l11.9,1.9c24.3,3.4,82.4,17.7,106.1,26.5
			c98.9,35.3,181.3,96,237.8,175c15.8,22,43.1,69.8,41.1,71.6C5719.7,3274.1,5687.1,3275.9,5684.3,3274.1z"/>
		<path class="st0" d="M5061.3,3062.7c-18-7.7-32.4-29.2-32.4-48.5c0.2-21.2,20.6-46.4,40-49.9c5-0.8,51.3-1.4,102.6-0.8l93.3,0.8
			l10.2,7.4c14.4,10.3,21.7,24.6,21.7,43c0,23.4-10.7,39.2-31.9,47.8C5250.8,3068,5074.6,3068.4,5061.3,3062.7z"/>
	</g>
</g>
<polyline class="st1" points="-156.9,227.3 670.6,227.3 674.2,137.8 -156.9,529.1 "/>
<g class="st2">
	<path class="st0" d="M31.4,144.6h17c3.7,6.9,5.5,14.2,5.5,21.8c0,8.9-2.1,16.4-6.4,22.4c-4.3,6.1-9.6,9.1-15.8,9.1
		c-8.1,0-15.1-4.7-20.7-14.1c-5.7-9.4-8.5-20.8-8.5-34.3c0-13.5,2.9-24.8,8.7-33.8c5.8-9,13-13.5,21.7-13.5c3,0,6.2,0.9,9.8,2.7
		v27.1c-2.8-2-5.4-3-7.7-3c-4.2,0-7.6,2-10.3,5.9c-2.7,4-4,9.1-4,15.4c0,6.5,1.2,11.6,3.7,15.4c2.5,3.8,5.8,5.7,10,5.7
		c2.7,0,4-1.2,4-3.5c0-1.8-0.9-2.7-2.6-2.7h-4.3V144.6z"/>
	<path class="st0" d="M82.9,150V174h-5.1v21.7H59.9v-58c0-11.2,2-19.9,6-26.2c4-6.2,9.7-9.3,17-9.3c7,0,12.2,2.8,15.6,8.5
		c3.4,5.6,5.1,14.3,5.1,26.1v58.9H85.8v-57.1c0-3.6-0.3-6-0.8-7.4c-0.6-1.4-1.6-2.1-3-2.1c-2.8,0-4.2,3.2-4.2,9.5V150H82.9z"/>
	<path class="st0" d="M113.2,195.8V130c0-8.2,1.6-14.8,4.9-20c3.3-5.2,7.5-7.8,12.7-7.8c6.2,0,10.9,4.3,14.2,12.9
		c2-4.6,4.2-7.9,6.5-9.9c2.3-2,5.2-3,8.6-3c5.4,0,9.5,2.6,12.4,7.8c2.9,5.2,4.3,12.6,4.3,22.3v63.4h-17.8v-59.3
		c0-2.9-0.2-4.9-0.5-5.8c-0.3-1-0.9-1.4-1.9-1.4c-1.8,0-2.6,2.3-2.6,6.8v59.8h-17.8v-59.3c0-2.9-0.2-4.8-0.5-5.8
		c-0.3-1-1-1.5-1.9-1.5c-1.8,0-2.6,2.4-2.6,7.3v59.3H113.2z"/>
	<path class="st0" d="M219.5,140v20.3h-11.6c-1.6,0-2.7,0.4-3.4,1.1c-0.7,0.7-1,1.9-1,3.6c0,1.9,0.3,3.2,1,3.8
		c0.7,0.6,2.1,0.9,4.1,0.9h12v26.1h-14c-6.6,0-11.6-2.4-15.1-7.2c-3.5-4.8-5.2-11.7-5.2-20.7v-35.7c0-8.7,1.6-15.5,4.9-20.3
		c3.3-4.8,7.9-7.2,13.9-7.2h15.5v26.2h-11.4c-3.1,0-4.6,1.5-4.6,4.5c0,1.8,0.4,3,1.1,3.7c0.7,0.7,2,1,3.9,1H219.5z"/>
	<path class="st0" d="M229.7,195.8v-59.2c0-10.4,2-18.7,6.1-24.9c4.1-6.2,9.5-9.4,16.3-9.4c6.8,0,11.9,3,15.5,9.1
		c3.6,6.1,5.4,14.8,5.4,26.1v58.3h-17.8v-58.3c0-5.6-1.3-8.4-3.9-8.4c-2.5,0-3.8,2.8-3.8,8.4v58.3H229.7z"/>
	<path class="st0" d="M310,130.7v65h-17.8v-65h-13.7v-26.2h45.1v26.2H310z"/>
	<path class="st0" d="M362.2,140v20.3h-11.6c-1.6,0-2.7,0.4-3.4,1.1c-0.7,0.7-1,1.9-1,3.6c0,1.9,0.3,3.2,1,3.8s2.1,0.9,4.1,0.9h12
		v26.1h-14c-6.6,0-11.6-2.4-15.1-7.2c-3.5-4.8-5.2-11.7-5.2-20.7v-35.7c0-8.7,1.6-15.5,4.9-20.3c3.3-4.8,7.9-7.2,13.9-7.2h15.5v26.2
		H352c-3.1,0-4.6,1.5-4.6,4.5c0,1.8,0.4,3,1.1,3.7c0.7,0.7,2,1,3.9,1H362.2z"/>
	<path class="st0" d="M391.4,129.1v66.7h-17.8v-91.2h22.9c7,0,12.4,2.6,16.2,7.9c4.3,5.9,6.4,13.3,6.4,22.4c0,9.2-2.7,17-8,23.3
		l10.3,37.6h-18.7l-8.7-29.4v-23.5h1.4c3.8,0,5.6-2.4,5.6-7.3c0-4.3-2.2-6.5-6.5-6.5H391.4z"/>
</g>
<g>
</g>
<g>
</g>
<g>
</g>
<g>
</g>
<g>
</g>
<g>
</g>
</svg>
